<svg xmlns="http://www.w3.org/2000/svg" xmlns:lucid="lucid" width="260" height="260"><g lucid:page-tab-id="0_0"><path d="M240 130c0 60.75-49.25 110-110 110S20 190.75 20 130 69.25 20 130 20s110 49.25 110 110z" stroke="#000" stroke-opacity="0" stroke-width=".5" fill="#ef8d22"/><path d="M194.63 106.05l-3.03-7.2c10.4-23.46 9.7-24.14 7.68-26.2L186 59.7l-1.3-1.12h-1.54c-.82 0-3.22 0-23.4 9.15l-7.43-3c-9.6-23.78-10.58-23.78-13.4-23.78h-18.7c-2.82 0-3.9 0-12.8 23.88l-7.4 3c-13.6-5.76-21.62-8.67-23.78-8.67l-1.76.05-14.28 14c-2.17 2.05-2.94 2.76 8.05 25.87l-3.03 7.17c-24.3 9.4-24.3 10.3-24.3 13.18v18.36c0 2.88 0 3.9 24.4 12.62l3.02 7.16c-10.38 23.45-9.7 24.15-7.67 26.18l13.25 12.98 1.32 1.14h1.55c.8 0 3.2 0 23.38-9.17l7.4 3c9.6 23.78 10.6 23.78 13.42 23.78h18.72c2.87 0 3.88 0 12.8-23.85l7.43-3.02c13.63 5.77 21.6 8.7 23.74 8.7l1.8-.05 14.37-14.1c2.04-2.05 2.76-2.76-8.16-25.8l3.02-7.16c24.33-9.42 24.33-10.4 24.33-13.2v-18.35c0-2.9 0-3.9-24.42-12.6zM130 158.75c-17.17 0-31.15-13.7-31.15-30.55 0-16.82 13.98-30.52 31.15-30.52 17.15 0 31.1 13.7 31.1 30.52 0 16.84-13.95 30.54-31.1 30.54z" fill="#fff"/><path d="M182.38 128.43c0 27.55-23.45 49.9-52.38 49.9-28.93 0-52.38-22.35-52.38-49.9 0-27.56 23.45-49.9 52.38-49.9 28.93 0 52.38 22.34 52.38 49.9z" stroke="#000" stroke-opacity="0" stroke-width="2" fill="#ef8d22"/><path d="M172.92 126.48l-38.9-36.88c-2.24-2-5.7-2-7.76 0l-8.55 7.88 10.16 9.56c.63-.26 1.52-.42 2.4-.42 3.75 0 6.77 2.85 6.77 6.37 0 .82-.17 1.66-.44 2.33l9.87 9.3c.63-.25 1.6-.4 2.4-.4 3.75 0 6.86 2.84 6.86 6.36 0 3.5-3.1 6.44-6.85 6.44-3.74 0-6.77-2.93-6.77-6.45 0-.85.2-1.7.46-2.28l-9.27-8.7v22.78c2.22 1 3.73 3.27 3.73 5.62 0 3.52-3.02 6.37-6.76 6.37-3.74 0-6.86-2.86-6.86-6.38 0-2.77 1.8-5.03 4.46-6.04v-23.2c-2.67-.76-4.45-3.28-4.45-5.96 0-.84.28-1.68.46-2.26L113.8 101l-26.63 25.48c-2.23 2-2.23 5.36 0 7.2l38.9 36.63c2.24 2.1 5.7 2.1 7.67 0l38.9-36.6c2.5-2.02 2.5-5.38.28-7.22z" stroke="#000" stroke-opacity="0" fill="#fff"/></g></svg>